<svg xmlns="http://www.w3.org/2000/svg" viewBox="0 0 96.54 94.95"><defs><style>.cls-1{fill:none;}.cls-2{fill:#595757;}.cls-3{fill:#ffca0a;}</style></defs><g id="Layer_2" data-name="Layer 2"><g id="icons"><path class="cls-1" d="M76.27,24.12a1.5,1.5,0,0,1,1.5-1.5h2.17v-9H10.61v64H79.94v-9H77.77a1.5,1.5,0,1,1,0-3h2.17v-40H77.77A1.5,1.5,0,0,1,76.27,24.12ZM42.33,68.51A22.62,22.62,0,1,1,64.94,45.9,22.64,22.64,0,0,1,42.33,68.51Z"/><path class="cls-1" d="M42.33,26.28A19.62,19.62,0,1,0,61.94,45.9,19.63,19.63,0,0,0,42.33,26.28Zm0,35.17A15.56,15.56,0,1,1,57.88,45.9,15.56,15.56,0,0,1,42.33,61.45Z"/><path class="cls-1" d="M87.06,3H9.49A6.5,6.5,0,0,0,3,9.49V85.56H93.54V9.49A6.49,6.49,0,0,0,87.06,3Zm-2,62.62a1.5,1.5,0,1,1,0,3H82.94v10.5a1.5,1.5,0,0,1-1.5,1.5H9.11a1.5,1.5,0,0,1-1.5-1.5v-67a1.5,1.5,0,0,1,1.5-1.5H81.44a1.5,1.5,0,0,1,1.5,1.5v10.5h2.17a1.5,1.5,0,0,1,0,3H82.94v40Z"/><path class="cls-2" d="M87.06,0H9.49A9.5,9.5,0,0,0,0,9.49V87.06a1.5,1.5,0,0,0,1.5,1.5H9.11v4.89a1.5,1.5,0,0,0,3,0V88.56H84.44v4.89a1.5,1.5,0,0,0,3,0V88.56H95a1.5,1.5,0,0,0,1.5-1.5V9.49A9.5,9.5,0,0,0,87.06,0Zm6.48,85.56H3V9.49A6.5,6.5,0,0,1,9.49,3H87.06a6.49,6.49,0,0,1,6.48,6.49Z"/><path class="cls-2" d="M85.11,25.62a1.5,1.5,0,0,0,0-3H82.94V12.12a1.5,1.5,0,0,0-1.5-1.5H9.11a1.5,1.5,0,0,0-1.5,1.5v67a1.5,1.5,0,0,0,1.5,1.5H81.44a1.5,1.5,0,0,0,1.5-1.5V68.62h2.17a1.5,1.5,0,1,0,0-3H82.94v-40Zm-5.17,40H77.77a1.5,1.5,0,1,0,0,3h2.17v9H10.61v-64H79.94v9H77.77a1.5,1.5,0,0,0,0,3h2.17Z"/><path class="cls-2" d="M42.33,23.28A22.62,22.62,0,1,0,64.94,45.9,22.64,22.64,0,0,0,42.33,23.28Zm0,42.23A19.62,19.62,0,1,1,61.94,45.9,19.63,19.63,0,0,1,42.33,65.51Z"/><path class="cls-3" d="M42.33,30.34A15.56,15.56,0,1,0,57.88,45.9,15.56,15.56,0,0,0,42.33,30.34Zm7.9,17.06h-6.4v6.4a1.5,1.5,0,0,1-3,0V47.4h-6.4a1.5,1.5,0,0,1,0-3h6.4V38a1.5,1.5,0,1,1,3,0V44.4h6.4a1.5,1.5,0,0,1,0,3Z"/><path class="cls-2" d="M50.23,44.4h-6.4V38a1.5,1.5,0,1,0-3,0V44.4h-6.4a1.5,1.5,0,0,0,0,3h6.4v6.4a1.5,1.5,0,0,0,3,0V47.4h6.4a1.5,1.5,0,0,0,0-3Z"/></g></g></svg>