<svg xmlns="http://www.w3.org/2000/svg" viewBox="0 0 96.54 73.54"><defs><style>.cls-1{fill:none;}.cls-2{fill:#595757;}.cls-3{fill:#ffca0a;}</style></defs><g id="Layer_2" data-name="Layer 2"><g id="icons"><path class="cls-1" d="M3,70.54H59.83V47.35L48.21,59l-5,.17v4.21a1.5,1.5,0,0,1-1.5,1.5h-31a1.5,1.5,0,0,1-1.5-1.5V55.72a1.5,1.5,0,0,1,1.5-1.5H37.31l.21-5.95,7.35-7.36H3Zm7.75-23.93h9.79a1.5,1.5,0,1,1,0,3H10.75a1.5,1.5,0,0,1,0-3Z"/><polygon class="cls-1" points="12.25 61.84 40.25 61.84 40.25 59.23 37.14 59.34 37.21 57.22 12.25 57.22 12.25 61.84"/><path class="cls-1" d="M91.89,12A9,9,0,0,0,76.5,5.64L60.3,21.84,73.05,34.59l16.2-16.2A9,9,0,0,0,91.89,12Z"/><path class="cls-2" d="M59.83,70.54H3V40.91H44.87l3-3H1.5A1.5,1.5,0,0,0,0,39.41V72a1.5,1.5,0,0,0,1.5,1.5H61.33a1.5,1.5,0,0,0,1.5-1.5V44.35l-3,3Z"/><path class="cls-2" d="M10.75,49.61h9.79a1.5,1.5,0,1,0,0-3H10.75a1.5,1.5,0,0,0,0,3Z"/><path class="cls-2" d="M9.25,55.72v7.62a1.5,1.5,0,0,0,1.5,1.5h31a1.5,1.5,0,0,0,1.5-1.5V59.13l-3,.1v2.61h-28V57.22h25l.1-3H10.75A1.5,1.5,0,0,0,9.25,55.72Z"/><polygon class="cls-3" points="56.29 29.49 47.87 37.91 44.87 40.91 37.52 48.27 37.31 54.22 37.21 57.22 37.14 59.34 40.25 59.23 43.25 59.13 48.21 58.96 59.83 47.35 62.83 44.35 66.98 40.19 56.29 29.49"/><path class="cls-2" d="M68,41.21a1.5,1.5,0,0,0,2.12,0,1.49,1.49,0,0,0,0-2.12L56.06,25a1.51,1.51,0,0,0-2.12,0,1.49,1.49,0,0,0,0,2.12l2.35,2.35L67,40.19Z"/><path class="cls-2" d="M96.1,24.75l-4.5-4.5A12,12,0,0,0,74.38,3.52L57.12,20.78a1.49,1.49,0,0,0,0,2.12L72,37.77a1.5,1.5,0,0,0,1.06.44,1.52,1.52,0,0,0,1.06-.44L89.49,22.38l3.43,3.43L69.41,49.32a1.51,1.51,0,0,0,0,2.12,1.51,1.51,0,0,0,2.13,0L96.1,26.87a1.5,1.5,0,0,0,0-2.12Zm-23,9.84L60.3,21.84,76.5,5.64A9,9,0,0,1,89.25,18.39Z"/></g></g></svg>