<svg xmlns="http://www.w3.org/2000/svg" viewBox="0 0 96.54 82.6"><defs><style>.cls-1{fill:none;}.cls-2{fill:#595757;}.cls-3{fill:#ffca0a;}</style></defs><g id="Layer_2" data-name="Layer 2"><g id="icons"><rect class="cls-1" x="14.56" y="36.19" width="22.94" height="3.88"/><path class="cls-1" d="M80.48,6.19A3.19,3.19,0,0,0,77.29,3H6.19A3.19,3.19,0,0,0,3,6.19V9.45H80.48Z"/><path class="cls-1" d="M80.48,52.48V19.78H3v32.7a3.2,3.2,0,0,0,3.19,3.2h71.1A3.2,3.2,0,0,0,80.48,52.48ZM20.8,49.38H13.06a1.5,1.5,0,0,1,0-3H20.8a1.5,1.5,0,1,1,0,3Zm16.54,0H29.6a1.5,1.5,0,0,1,0-3h7.74a1.5,1.5,0,0,1,0,3Zm3.17-7.81a1.5,1.5,0,0,1-1.5,1.5H13.06a1.5,1.5,0,0,1-1.5-1.5V34.69a1.5,1.5,0,0,1,1.5-1.5H39a1.5,1.5,0,0,1,1.5,1.5Zm13.37,7.81H46.14a1.5,1.5,0,0,1,0-3h7.74a1.5,1.5,0,0,1,0,3Zm16.54,0H62.67a1.5,1.5,0,0,1,0-3h7.75a1.5,1.5,0,0,1,0,3Z"/><path class="cls-1" d="M90.82,27.46l-7.34-1.09V52.48a6.2,6.2,0,0,1-6.19,6.2H11.06l-1,6.76a3.18,3.18,0,0,0,2.68,3.63L83.05,79.56A3.23,3.23,0,0,0,85.42,79a3.17,3.17,0,0,0,1.26-2.1l6.83-45.78a3.19,3.19,0,0,0-2.69-3.63Z"/><path class="cls-2" d="M95.33,26.93a6.19,6.19,0,0,0-4.07-2.44l-7.78-1.16V6.19A6.2,6.2,0,0,0,77.29,0H6.19A6.2,6.2,0,0,0,0,6.19V52.48a6.2,6.2,0,0,0,6.19,6.2H8L7.08,65a6.2,6.2,0,0,0,5.21,7L82.61,82.53a7.26,7.26,0,0,0,.92.07,6.2,6.2,0,0,0,6.12-5.28l6.82-45.79A6.15,6.15,0,0,0,95.33,26.93ZM3,52.48V6.19A3.19,3.19,0,0,1,6.19,3h71.1a3.19,3.19,0,0,1,3.19,3.19V52.48a3.2,3.2,0,0,1-3.19,3.2H6.19A3.2,3.2,0,0,1,3,52.48ZM93.51,31.09,86.68,76.87A3.17,3.17,0,0,1,85.42,79a3.23,3.23,0,0,1-2.37.59L12.73,69.07a3.18,3.18,0,0,1-2.68-3.63l1-6.76H77.29a6.2,6.2,0,0,0,6.19-6.2V26.37l7.34,1.09a3.19,3.19,0,0,1,2.69,3.63Z"/><path class="cls-2" d="M20.8,46.38H13.06a1.5,1.5,0,0,0,0,3H20.8a1.5,1.5,0,1,0,0-3Z"/><path class="cls-2" d="M37.34,46.38H29.6a1.5,1.5,0,0,0,0,3h7.74a1.5,1.5,0,0,0,0-3Z"/><path class="cls-2" d="M53.88,46.38H46.14a1.5,1.5,0,0,0,0,3h7.74a1.5,1.5,0,0,0,0-3Z"/><path class="cls-2" d="M70.42,46.38H62.67a1.5,1.5,0,0,0,0,3h7.75a1.5,1.5,0,0,0,0-3Z"/><rect class="cls-3" x="3" y="9.45" width="77.48" height="10.32"/><path class="cls-2" d="M39,33.19H13.06a1.5,1.5,0,0,0-1.5,1.5v6.88a1.5,1.5,0,0,0,1.5,1.5H39a1.5,1.5,0,0,0,1.5-1.5V34.69A1.5,1.5,0,0,0,39,33.19Zm-1.5,6.88H14.56V36.19H37.51Z"/></g></g></svg>