<svg xmlns="http://www.w3.org/2000/svg" viewBox="0 0 96.54 96.05"><defs><style>.cls-1{fill:none;}.cls-2{fill:#ffca0a;}.cls-3{fill:#595757;}</style></defs><g id="Layer_2" data-name="Layer 2"><g id="icons"><rect class="cls-1" x="42.52" y="33.94" width="11.5" height="42.75"/><rect class="cls-1" x="22.02" y="33.94" width="11.5" height="42.75"/><rect class="cls-1" x="63.02" y="33.94" width="11.5" height="42.75"/><circle class="cls-1" cx="48.27" cy="19.52" r="3.5"/><path class="cls-1" d="M90,86H6.52a3.53,3.53,0,0,0,0,7H90a3.53,3.53,0,0,0,0-7Z"/><path class="cls-1" d="M48.27,3.3,6.49,30.94H90.06Zm0,22.72a6.5,6.5,0,1,1,6.5-6.5A6.51,6.51,0,0,1,48.27,26Z"/><rect class="cls-2" x="13.02" y="33.94" width="9" height="42.75"/><rect class="cls-2" x="33.52" y="33.94" width="9" height="42.75"/><rect class="cls-2" x="54.02" y="33.94" width="9" height="42.75"/><rect class="cls-2" x="74.52" y="33.94" width="9" height="42.75"/><path class="cls-3" d="M1.5,33.94H95a1.49,1.49,0,0,0,1.44-1.06,1.51,1.51,0,0,0-.61-1.69L49.1.25a1.52,1.52,0,0,0-1.66,0L.67,31.19a1.5,1.5,0,0,0,.83,2.75ZM48.27,3.3,90.06,30.94H6.49Z"/><path class="cls-3" d="M90,83H6.52a6.53,6.53,0,0,0,0,13H90a6.53,6.53,0,0,0,0-13Zm0,10H6.52a3.53,3.53,0,0,1,0-7H90a3.53,3.53,0,0,1,0,7Z"/><path class="cls-3" d="M63,76.69H9.61a1.5,1.5,0,0,0,0,3H86.94a1.5,1.5,0,0,0,0-3H63Z"/><path class="cls-3" d="M48.27,13a6.5,6.5,0,1,0,6.5,6.5A6.51,6.51,0,0,0,48.27,13Zm0,10a3.5,3.5,0,1,1,3.5-3.5A3.5,3.5,0,0,1,48.27,23Z"/></g></g></svg>