<svg xmlns="http://www.w3.org/2000/svg" viewBox="0 0 92.67 95.04"><defs><style>.cls-1{fill:none;}.cls-2{fill:#595757;}.cls-3{fill:#ffca0a;}</style></defs><g id="Layer_2" data-name="Layer 2"><g id="icons"><path class="cls-1" d="M50,22.35c-.88-.05-1.77-.08-2.66-.08a44.54,44.54,0,0,0-20,4.68,1.49,1.49,0,0,1-1.62-.16c-3-2.41-6.17-3.19-9.45-2.27l3.63,5.58s0,.09.05.13l2.16,3.23a1.5,1.5,0,0,1-.42,2.08,1.52,1.52,0,0,1-.83.25,1.48,1.48,0,0,1-1.25-.67l-1.27-1.89A31.88,31.88,0,0,0,8.7,49.5a1.5,1.5,0,0,1-1.46,1.17H3V69.09h7.23a1.49,1.49,0,0,1,1.32.79,35.2,35.2,0,0,0,10.74,12,1.49,1.49,0,0,1,.64,1.22v9h7.46V88.41a1.5,1.5,0,0,1,2-1.41,45.41,45.41,0,0,0,33.26-1.35A1.51,1.51,0,0,1,67.77,87v5h7.46V80.27a1.5,1.5,0,0,1,.5-1.12c7.07-6.29,11-14.55,11-23.26,0-15.33-12.08-28.29-28.53-32.32A6.66,6.66,0,0,1,50,22.35ZM19.07,54.74a3.2,3.2,0,1,1,3.2-3.19A3.2,3.2,0,0,1,19.07,54.74ZM59.33,29a2.08,2.08,0,0,1-2.08,2.08H41.92a2.08,2.08,0,1,1,0-4.16H57.25A2.08,2.08,0,0,1,59.33,29Z"/><path class="cls-2" d="M92.51,30.82a1.5,1.5,0,1,0-3,.43,9,9,0,0,1-3.83,9.16c-4.91-9.06-14-16.1-25.07-19.28a6.75,6.75,0,0,1-2.48,2.44c16.45,4,28.53,17,28.53,32.32,0,8.71-3.89,17-11,23.26a1.5,1.5,0,0,0-.5,1.12V92H67.77V87a1.51,1.51,0,0,0-2.12-1.37A45.41,45.41,0,0,1,32.39,87a1.5,1.5,0,0,0-2,1.41V92H22.93v-9a1.49,1.49,0,0,0-.64-1.22,35.2,35.2,0,0,1-10.74-12,1.49,1.49,0,0,0-1.32-.79H3V50.67H7.24A1.5,1.5,0,0,0,8.7,49.5a31.88,31.88,0,0,1,9.61-16.27l1.27,1.89a1.48,1.48,0,0,0,1.25.67,1.52,1.52,0,0,0,.83-.25,1.5,1.5,0,0,0,.42-2.08l-2.16-3.23s0-.09-.05-.13l-3.63-5.58c3.28-.92,6.46-.14,9.45,2.27a1.49,1.49,0,0,0,1.62.16,44.54,44.54,0,0,1,20-4.68c.89,0,1.78,0,2.66.08a6.69,6.69,0,0,1-1.66-3.06l-1,0A47.57,47.57,0,0,0,26.8,23.86a13,13,0,0,0-13.46-1.47,1.49,1.49,0,0,0-.64,2.19l3.2,4.92a1.58,1.58,0,0,0,.16.35l.56.83a35.18,35.18,0,0,0-10.56,17H1.5A1.5,1.5,0,0,0,0,49.17V70.59a1.5,1.5,0,0,0,1.5,1.5H9.35A38.27,38.27,0,0,0,19.93,83.82v9.72a1.5,1.5,0,0,0,1.5,1.5H31.89a1.5,1.5,0,0,0,1.5-1.5V90.48a48.25,48.25,0,0,0,14,2,47.34,47.34,0,0,0,17.43-3.25v4.27a1.5,1.5,0,0,0,1.5,1.5H76.73a1.5,1.5,0,0,0,1.5-1.5V80.94c7.4-6.82,11.46-15.69,11.46-25A32.08,32.08,0,0,0,87,43.15,12.14,12.14,0,0,0,92.51,30.82Z"/><path class="cls-3" d="M19.07,48.35a3.2,3.2,0,1,0,3.2,3.2A3.2,3.2,0,0,0,19.07,48.35Z"/><path class="cls-3" d="M39.84,29a2.08,2.08,0,0,0,2.08,2.08H57.25a2.08,2.08,0,0,0,0-4.16H41.92A2.08,2.08,0,0,0,39.84,29Z"/><path class="cls-3" d="M54.86,24.45A6.73,6.73,0,1,0,50,22.35,6.69,6.69,0,0,0,54.86,24.45Z"/><path class="cls-3" d="M38.08,13.42a6.71,6.71,0,1,0-6.71-6.71A6.7,6.7,0,0,0,38.08,13.42Z"/></g></g></svg>