<svg xmlns="http://www.w3.org/2000/svg" viewBox="0 0 96.54 80.44"><defs><style>.cls-1{fill:none;}.cls-2{fill:#595757;}.cls-3{fill:#ffca0a;}</style></defs><g id="Layer_2" data-name="Layer 2"><g id="icons"><path class="cls-1" d="M18.16,50.87a7.41,7.41,0,0,0-7.4,7.4V77.44H25.55V58.27A7.41,7.41,0,0,0,18.16,50.87Z"/><path class="cls-1" d="M48.27,34.87a7.41,7.41,0,0,0-7.4,7.4V77.44h14.8V42.27A7.41,7.41,0,0,0,48.27,34.87Z"/><path class="cls-1" d="M78.39,18.37a7.41,7.41,0,0,0-7.4,7.4V77.44h14.8V25.77A7.41,7.41,0,0,0,78.39,18.37Z"/><path class="cls-2" d="M10.76,58.27a7.4,7.4,0,1,1,14.79,0V77.44h3V58.27a10.4,10.4,0,1,0-20.79,0V77.44h3Z"/><path class="cls-2" d="M40.87,42.27a7.4,7.4,0,1,1,14.8,0V77.44h3V42.27a10.4,10.4,0,1,0-20.8,0V77.44h3Z"/><path class="cls-2" d="M71,25.77a7.4,7.4,0,0,1,14.8,0V77.44h3V25.77a10.4,10.4,0,0,0-20.8,0V77.44h3Z"/><path class="cls-2" d="M95,77.44H1.5a1.5,1.5,0,0,0,0,3H95a1.5,1.5,0,1,0,0-3Z"/><path class="cls-3" d="M16.28,35.71a1.52,1.52,0,0,0,.79-.22L63.6,6.84l.85-2.29L62,4.28,15.5,32.93a1.5,1.5,0,0,0,.78,2.78Z"/><path class="cls-3" d="M63.6,6.84,59.52,17.78a1.51,1.51,0,0,0,.89,1.93,1.37,1.37,0,0,0,.52.1,1.52,1.52,0,0,0,1.41-1l5.59-15a1.51,1.51,0,0,0-1.24-2L50.75,0a1.5,1.5,0,1,0-.33,3L62,4.28l2.43.27Z"/></g></g></svg>