<svg xmlns="http://www.w3.org/2000/svg" viewBox="0 0 89.94 96.54"><defs><style>.cls-1{fill:none;}.cls-2{fill:#595757;}.cls-3{fill:#ffca0a;}</style></defs><g id="Layer_2" data-name="Layer 2"><g id="icons"><rect class="cls-1" x="58.02" y="41.06" width="7.43" height="22" transform="translate(-18.73 58.9) rotate(-45)"/><path class="cls-1" d="M70,28.05a3.1,3.1,0,0,0,4.29,0,3,3,0,0,0,0-4.29L54.39,3.89A3,3,0,0,0,52.25,3,3,3,0,0,0,50.1,8.18Z"/><path class="cls-1" d="M41.17,81.75H10.43A7.43,7.43,0,0,0,3,89.17v4.37H48.6V89.17A7.43,7.43,0,0,0,41.17,81.75Z"/><path class="cls-1" d="M17.85,40.43a3,3,0,0,0-2.14-.89,3.05,3.05,0,0,0-2.15.89,3.05,3.05,0,0,0,0,4.29L33.44,64.59a3.1,3.1,0,0,0,4.29,0,3,3,0,0,0,.88-2.14,3,3,0,0,0-.88-2.15Z"/><rect class="cls-1" x="69.26" y="61.4" width="7.43" height="3.8" transform="translate(-23.39 70.14) rotate(-45)"/><path class="cls-1" d="M79.07,64.14l-5.25,5.25,6.79,6.79a3.79,3.79,0,0,0,5.25,0,3.71,3.71,0,0,0,0-5.25Z"/><path class="cls-2" d="M41.17,78.75H10.43A10.43,10.43,0,0,0,0,89.17V95a1.5,1.5,0,0,0,1.5,1.5H50.1A1.5,1.5,0,0,0,51.6,95V89.17A10.43,10.43,0,0,0,41.17,78.75ZM48.6,93.54H3V89.17a7.43,7.43,0,0,1,7.43-7.42H41.17a7.43,7.43,0,0,1,7.43,7.42Z"/><path class="cls-2" d="M88,68.81,58.71,39.54l-2.13,2.12L72.14,57.21l-5.25,5.25L51.33,46.91,49.21,49,78.49,78.31A6.71,6.71,0,1,0,88,68.81ZM74.26,59.33,77,62,71.7,67.27,69,64.58Zm11.6,16.85a3.79,3.79,0,0,1-5.25,0l-6.79-6.79,5.25-5.25,6.79,6.79A3.71,3.71,0,0,1,85.86,76.18Z"/><path class="cls-3" d="M56.58,41.66l2.13-2.12,7.48-7.49a9.88,9.88,0,0,1,2-1.55c-.12-.11-.24-.21-.35-.33L48,10.3c-.11-.12-.2-.26-.31-.38a9.78,9.78,0,0,1-1.56,2L21.64,36.43a9.88,9.88,0,0,1-2,1.55c.12.11.24.21.35.33L39.85,58.18c.11.11.22.24.32.36a10.65,10.65,0,0,1,1.55-2L49.21,49l2.12-2.12Z"/><path class="cls-2" d="M20,38.31c-.11-.12-.23-.22-.35-.33a6,6,0,0,0-8.18,8.86L31.32,66.71a6,6,0,0,0,8.85-8.17c-.1-.12-.21-.25-.32-.36ZM37.73,64.59a3.1,3.1,0,0,1-4.29,0L13.56,44.72a3,3,0,1,1,4.29-4.29L37.73,60.3a3,3,0,0,1,.88,2.15A3,3,0,0,1,37.73,64.59Z"/><path class="cls-2" d="M67.86,30.17c.11.12.23.22.35.33a6,6,0,0,0,8.18-8.86L56.52,1.77a6,6,0,0,0-8.85,8.15c.11.12.2.26.31.38ZM50.1,3.89A3.05,3.05,0,0,1,52.25,3a3,3,0,0,1,2.14.89L74.27,23.76a3,3,0,0,1,0,4.29,3.1,3.1,0,0,1-4.29,0L50.1,8.18A3,3,0,0,1,50.1,3.89Z"/></g></g></svg>