<svg xmlns="http://www.w3.org/2000/svg" viewBox="0 0 95.04 95.04"><defs><style>.cls-1{fill:none;}.cls-2{fill:#595757;}.cls-3{fill:#ffca0a;}</style></defs><g id="Layer_2" data-name="Layer 2"><g id="icons"><path class="cls-1" d="M20.62,53.68H3A39.69,39.69,0,0,0,13.58,79.19a42.59,42.59,0,0,1,10.65-7.3A54.39,54.39,0,0,1,20.62,53.68Z"/><path class="cls-1" d="M65.1,53.68a54.28,54.28,0,0,1-3.61,18.2,42.72,42.72,0,0,1,10.65,7.31A39.7,39.7,0,0,0,82.69,53.68Z"/><path class="cls-1" d="M23.62,53.68a51.26,51.26,0,0,0,3.36,17,43.13,43.13,0,0,1,31.76,0,51,51,0,0,0,3.36-17Z"/><path class="cls-1" d="M48.37,13.33c.1-.19.2-.39.31-.58-.39-.06-.79-.11-1.19-.15Z"/><path class="cls-1" d="M82.69,50.68a41,41,0,0,0-.4-4.32,24.66,24.66,0,0,1-17.24,2.53c0,.59,0,1.19,0,1.79Z"/><path class="cls-1" d="M28.14,73.44A45.81,45.81,0,0,0,42.86,91.62,45.81,45.81,0,0,0,57.58,73.44,40.13,40.13,0,0,0,28.14,73.44Z"/><path class="cls-1" d="M28.14,30.93a39.69,39.69,0,0,0,14.72,2.81,38.87,38.87,0,0,0,4.33-.24,24.86,24.86,0,0,1-.1-17.28,45.74,45.74,0,0,0-4.23-3.48A45.75,45.75,0,0,0,28.14,30.93Z"/><path class="cls-1" d="M27,33.7a51.29,51.29,0,0,0-3.35,17H62.1c0-.9-.07-1.79-.14-2.67A24.84,24.84,0,0,1,48.49,36.37a43.76,43.76,0,0,1-5.63.37A42.82,42.82,0,0,1,27,33.7Z"/><path class="cls-1" d="M15.7,23a39.53,39.53,0,0,0,9.69,6.68A49.17,49.17,0,0,1,38.23,12.6,39.71,39.71,0,0,0,15.7,23Z"/><path class="cls-1" d="M3,50.68H20.62A54.17,54.17,0,0,1,24.23,32.5a43.12,43.12,0,0,1-10.65-7.33A39.69,39.69,0,0,0,3,50.68Z"/><path class="cls-1" d="M60.32,74.65A48.9,48.9,0,0,1,47.49,91.76,39.68,39.68,0,0,0,70,81.32,39.49,39.49,0,0,0,60.32,74.65Z"/><path class="cls-1" d="M25.4,74.65a39.67,39.67,0,0,0-9.7,6.67A39.71,39.71,0,0,0,38.23,91.76,49,49,0,0,1,25.4,74.65Z"/><path class="cls-2" d="M82.69,50.68H65.1c0-.6,0-1.2,0-1.79A24.35,24.35,0,0,1,62,48c.07.88.12,1.77.14,2.67H23.62A51.29,51.29,0,0,1,27,33.7a42.82,42.82,0,0,0,15.89,3,43.76,43.76,0,0,0,5.63-.37,25.66,25.66,0,0,1-1.3-2.87,38.87,38.87,0,0,1-4.33.24,39.69,39.69,0,0,1-14.72-2.81A45.75,45.75,0,0,1,42.86,12.74a45.74,45.74,0,0,1,4.23,3.48,24,24,0,0,1,1.28-2.89l-.88-.73c.4,0,.8.09,1.19.15A24.75,24.75,0,0,1,50.45,10,42.89,42.89,0,1,0,85,44.6a25.2,25.2,0,0,1-2.75,1.76A41,41,0,0,1,82.69,50.68ZM72.14,79.19a42.72,42.72,0,0,0-10.65-7.31,54.28,54.28,0,0,0,3.61-18.2H82.69A39.7,39.7,0,0,1,72.14,79.19ZM3,53.68H20.62a54.39,54.39,0,0,0,3.61,18.21,42.59,42.59,0,0,0-10.65,7.3A39.69,39.69,0,0,1,3,53.68ZM27,70.67a51.26,51.26,0,0,1-3.36-17H62.1a51,51,0,0,1-3.36,17A43.13,43.13,0,0,0,27,70.67Zm30.6,2.77A45.81,45.81,0,0,1,42.86,91.62,45.81,45.81,0,0,1,28.14,73.44,40.13,40.13,0,0,1,57.58,73.44ZM25.4,74.65A49,49,0,0,0,38.23,91.76,39.71,39.71,0,0,1,15.7,81.32,39.67,39.67,0,0,1,25.4,74.65Zm34.92,0A39.49,39.49,0,0,1,70,81.32,39.68,39.68,0,0,1,47.49,91.76,48.9,48.9,0,0,0,60.32,74.65Zm-39.7-24H3A39.69,39.69,0,0,1,13.58,25.17,43.12,43.12,0,0,0,24.23,32.5,54.17,54.17,0,0,0,20.62,50.68Zm4.77-21A39.53,39.53,0,0,1,15.7,23,39.71,39.71,0,0,1,38.23,12.6,49.17,49.17,0,0,0,25.39,29.72Z"/><path class="cls-3" d="M95,24.73a24.73,24.73,0,0,0-46.36-12c-.11.19-.21.39-.31.58a24,24,0,0,0-1.28,2.89,24.86,24.86,0,0,0,.1,17.28,25.66,25.66,0,0,0,1.3,2.87A24.84,24.84,0,0,0,62,48a24.35,24.35,0,0,0,3.09.88,24.66,24.66,0,0,0,17.24-2.53A25.2,25.2,0,0,0,85,44.6,24.7,24.7,0,0,0,95,24.73ZM71.81,40v2.78a1.5,1.5,0,0,1-3,0V40a8.47,8.47,0,0,1-7-8.32,1.5,1.5,0,1,1,3,0,5.47,5.47,0,1,0,5.46-5.47,1.86,1.86,0,0,1-.33,0A8.45,8.45,0,0,1,68.81,9.43V6.64a1.5,1.5,0,0,1,3,0V9.43a8.47,8.47,0,0,1,7,8.32,1.5,1.5,0,0,1-3,0,5.47,5.47,0,1,0-5.47,5.47,1.27,1.27,0,0,1,.34,0A8.45,8.45,0,0,1,71.81,40Z"/><path class="cls-2" d="M70.65,23.26a1.27,1.27,0,0,0-.34,0,5.47,5.47,0,1,1,5.47-5.47,1.5,1.5,0,0,0,3,0,8.47,8.47,0,0,0-7-8.32V6.64a1.5,1.5,0,0,0-3,0V9.43A8.45,8.45,0,0,0,70,26.2a1.86,1.86,0,0,0,.33,0,5.47,5.47,0,1,1-5.46,5.47,1.5,1.5,0,1,0-3,0,8.47,8.47,0,0,0,7,8.32v2.78a1.5,1.5,0,0,0,3,0V40a8.45,8.45,0,0,0-1.16-16.77Z"/></g></g></svg>