<svg xmlns="http://www.w3.org/2000/svg" viewBox="0 0 96.54 85.02"><defs><style>.cls-1{fill:none;}.cls-2{fill:#595757;}.cls-3{fill:#ffca0a;}</style></defs><g id="Layer_2" data-name="Layer 2"><g id="icons"><rect class="cls-1" x="58.43" y="15.62" width="8" height="12.5"/><ellipse class="cls-1" cx="61.11" cy="56.92" rx="7.82" ry="3.9"/><path class="cls-1" d="M69.43,15.62v14a1.5,1.5,0,0,1-1.5,1.5h-11a1.5,1.5,0,0,1-1.5-1.5v-14H26.6a.43.43,0,0,0,0,.05v9a1.5,1.5,0,0,1-3,0V15.62h-8.1V82H81V15.62ZM26.61,72.67a1.5,1.5,0,0,1-3,0v-9a1.5,1.5,0,0,1,3,0Zm0-16a1.5,1.5,0,0,1-3,0v-9a1.5,1.5,0,0,1,3,0Zm0-16a1.5,1.5,0,0,1-3,0v-9a1.5,1.5,0,0,1,3,0ZM70.93,62.85a9.83,9.83,0,1,1-17.64-5.93,9.82,9.82,0,1,1,15.64,0A9.78,9.78,0,0,1,70.93,62.85Z"/><path class="cls-1" d="M3,25.24h9.51V15.62H9.94a1.5,1.5,0,0,1,0-3H86.61a1.5,1.5,0,0,1,0,3H84v9.62h9.5V3H3Z"/><path class="cls-2" d="M95,0H1.5A1.5,1.5,0,0,0,0,1.5V26.74a1.5,1.5,0,0,0,1.5,1.5h11V83.52A1.5,1.5,0,0,0,14,85H82.54a1.51,1.51,0,0,0,1.5-1.5V28.24H95a1.5,1.5,0,0,0,1.5-1.5V1.5A1.5,1.5,0,0,0,95,0ZM15.51,82V15.62h8.1v9.05a1.5,1.5,0,0,0,3,0v-9a.43.43,0,0,1,0-.05H55.43v14a1.5,1.5,0,0,0,1.5,1.5h11a1.5,1.5,0,0,0,1.5-1.5v-14H81V82Zm50.92-66.4v12.5h-8V15.62Zm27.11,9.62H84V15.62h2.57a1.5,1.5,0,0,0,0-3H9.94a1.5,1.5,0,0,0,0,3h2.57v9.62H3V3H93.54Z"/><path class="cls-2" d="M25.11,30.17a1.5,1.5,0,0,0-1.5,1.5v9a1.5,1.5,0,0,0,3,0v-9A1.51,1.51,0,0,0,25.11,30.17Z"/><path class="cls-2" d="M25.11,46.17a1.5,1.5,0,0,0-1.5,1.5v9a1.5,1.5,0,0,0,3,0v-9A1.51,1.51,0,0,0,25.11,46.17Z"/><path class="cls-2" d="M25.11,62.17a1.5,1.5,0,0,0-1.5,1.5v9a1.5,1.5,0,0,0,3,0v-9A1.51,1.51,0,0,0,25.11,62.17Z"/><path class="cls-3" d="M61.11,41.17a9.8,9.8,0,0,0-7.82,15.75,9.81,9.81,0,0,1,15.64,0,9.81,9.81,0,0,0-7.82-15.75Z"/><path class="cls-3" d="M61.11,60.82a9.77,9.77,0,0,1-7.82-3.9,9.82,9.82,0,1,0,15.64,0A9.8,9.8,0,0,1,61.11,60.82Z"/></g></g></svg>