<svg xmlns="http://www.w3.org/2000/svg" viewBox="0 0 96.54 90.09"><defs><style>.cls-1{fill:none;}.cls-2{fill:#ffca0a;}.cls-3{fill:#595757;}</style></defs><g id="Layer_2" data-name="Layer 2"><g id="icons"><path class="cls-1" d="M90.2,3H6.34a3.34,3.34,0,0,0,0,6.68H90.2A3.34,3.34,0,1,0,90.2,3Z"/><path class="cls-1" d="M45.47,84.29a2.8,2.8,0,1,0,2.8-2.8A2.81,2.81,0,0,0,45.47,84.29Z"/><path class="cls-1" d="M7.44,12.68V67.74H89.11V12.68ZM78.72,59.09H17.83a1.5,1.5,0,0,1,0-3H23.6V44.25h9.34V56.09H43.6V35.25h9.34V56.09H63.6V25.25h9.34V56.09h5.78a1.5,1.5,0,0,1,0,3Z"/><rect class="cls-2" x="23.6" y="44.25" width="9.33" height="11.83"/><rect class="cls-2" x="43.6" y="35.25" width="9.33" height="20.83"/><rect class="cls-2" x="63.6" y="25.25" width="9.33" height="30.83"/><path class="cls-3" d="M96.54,6.34A6.34,6.34,0,0,0,90.2,0H6.34a6.34,6.34,0,0,0-1.9,12.38V69.24a1.5,1.5,0,0,0,1.5,1.5H46.77v8a5.8,5.8,0,1,0,3,0v-8H90.61a1.5,1.5,0,0,0,1.5-1.5V12.38A6.34,6.34,0,0,0,96.54,6.34Zm-45.47,78a2.8,2.8,0,1,1-2.8-2.8A2.8,2.8,0,0,1,51.07,84.29ZM7.44,67.74V12.68H89.11V67.74ZM90.2,9.68H6.34A3.34,3.34,0,0,1,6.34,3H90.2a3.34,3.34,0,1,1,0,6.68Z"/><path class="cls-3" d="M78.72,56.09H17.83a1.5,1.5,0,0,0,0,3H78.72a1.5,1.5,0,0,0,0-3Z"/></g></g></svg>