<svg xmlns="http://www.w3.org/2000/svg" viewBox="0 0 96.54 85.15"><defs><style>.cls-1{fill:none;}.cls-2{fill:#595757;}.cls-3{fill:#ffca0a;}</style></defs><g id="Layer_2" data-name="Layer 2"><g id="icons"><path class="cls-1" d="M13.94,46.61a24.6,24.6,0,1,0,49.19,0H38.54V22A24.62,24.62,0,0,0,13.94,46.61Z"/><path class="cls-1" d="M38.54,74.21a27.49,27.49,0,0,1-18.42-7.06l-5.61,5.61A35.51,35.51,0,0,0,74.07,46.61H66.13A27.63,27.63,0,0,1,38.54,74.21Z"/><path class="cls-1" d="M3,46.61a35.4,35.4,0,0,0,9.38,24L18,65A27.58,27.58,0,0,1,38.54,19V11.08A35.57,35.57,0,0,0,3,46.61Z"/><path class="cls-2" d="M38.54,82.15a35.36,35.36,0,0,1-24-9.39l5.61-5.61a27.58,27.58,0,0,0,46-20.54h-3A24.6,24.6,0,1,1,38.54,22V19A27.58,27.58,0,0,0,18,65l-5.62,5.61A35.51,35.51,0,0,1,38.54,11.08v-3A38.54,38.54,0,1,0,77.07,46.61h-3A35.57,35.57,0,0,1,38.54,82.15Z"/><path class="cls-3" d="M64.8,8.1,55.86,17a1.49,1.49,0,0,1-1.06.44A1.53,1.53,0,0,1,53.74,17a1.51,1.51,0,0,1,0-2.12L62.2,6.46A46.32,46.32,0,0,0,38.54,0V46.61H85.15A46.58,46.58,0,0,0,64.8,8.1Z"/><path class="cls-2" d="M53.74,14.92a1.51,1.51,0,0,0,0,2.12,1.53,1.53,0,0,0,1.06.44A1.49,1.49,0,0,0,55.86,17L64.8,8.1l3.74-3.73H95a1.5,1.5,0,0,0,0-3H67.92a1.49,1.49,0,0,0-1.06.43L62.2,6.46Z"/><path class="cls-2" d="M95,7.62H81.93a1.5,1.5,0,0,0,0,3H95a1.5,1.5,0,1,0,0-3Z"/><path class="cls-2" d="M95,14.48h-6a1.5,1.5,0,0,0,0,3h6a1.5,1.5,0,0,0,0-3Z"/></g></g></svg>