<svg xmlns="http://www.w3.org/2000/svg" viewBox="0 0 96.54 93.54"><defs><style>.cls-1{fill:none;}.cls-2{fill:#595757;}.cls-3{fill:#ffca0a;}</style></defs><g id="Layer_2" data-name="Layer 2"><g id="icons"><path class="cls-1" d="M55.36,25.83V30.2A7.59,7.59,0,0,0,55.69,28,7.47,7.47,0,0,0,55.36,25.83Z"/><path class="cls-1" d="M41.18,30.2V25.83A7.46,7.46,0,0,0,40.86,28,7.58,7.58,0,0,0,41.18,30.2Z"/><path class="cls-1" d="M85.29,37.56V18.46a7.26,7.26,0,0,1-6.29-6H55.36v7.9a10.36,10.36,0,0,1,0,15.22v7.9H79A7.28,7.28,0,0,1,85.29,37.56Z"/><path class="cls-1" d="M93.54,4H55.36V9.5h25a1.51,1.51,0,0,1,1.08.46,1.49,1.49,0,0,1,.42,1.11v.12a4.27,4.27,0,0,0,4.25,4.32l.48,0a1.46,1.46,0,0,1,1.16.38,1.48,1.48,0,0,1,.5,1.11V39.05a1.5,1.5,0,0,1-.5,1.12,1.49,1.49,0,0,1-1.16.37l-.48,0a4.25,4.25,0,0,0-4.25,4.2,1.63,1.63,0,0,1,0,.31,1.5,1.5,0,0,1-1.5,1.5H55.36V52H93.54Z"/><path class="cls-1" d="M11.25,18.46v19.1a7.27,7.27,0,0,1,6.29,6H41.18v-7.9a10.38,10.38,0,0,1,0-15.22V12.5H17.54A7.26,7.26,0,0,1,11.25,18.46Z"/><path class="cls-1" d="M3,52H41.18v-5.5h-25a1.47,1.47,0,0,1-1.08-.46,1.5,1.5,0,0,1-.41-1.1v-.13a4.26,4.26,0,0,0-4.24-4.32,3.91,3.91,0,0,0-.49,0,1.49,1.49,0,0,1-1.16-.37,1.5,1.5,0,0,1-.5-1.12V17a1.48,1.48,0,0,1,.5-1.11,1.46,1.46,0,0,1,1.16-.38,3.91,3.91,0,0,0,.49,0,4.26,4.26,0,0,0,4.25-4.25v-.19A1.52,1.52,0,0,1,15.05,10a1.51,1.51,0,0,1,1.08-.46H41.18V4H3Z"/><path class="cls-2" d="M37.86,28a10.36,10.36,0,0,0,3.32,7.61V30.2A7.58,7.58,0,0,1,40.86,28a7.46,7.46,0,0,1,.32-2.18V20.4A10.38,10.38,0,0,0,37.86,28Z"/><path class="cls-2" d="M58.69,28a10.39,10.39,0,0,0-3.33-7.61v5.43A7.47,7.47,0,0,1,55.69,28a7.59,7.59,0,0,1-.33,2.19v5.42A10.37,10.37,0,0,0,58.69,28Z"/><path class="cls-2" d="M3,52V4H41.18V1H1.5A1.5,1.5,0,0,0,0,2.5v51A1.5,1.5,0,0,0,1.5,55H41.18V52Z"/><path class="cls-2" d="M93.54,4V52H55.36v3H95a1.5,1.5,0,0,0,1.5-1.5V2.5A1.5,1.5,0,0,0,95,1H55.36V4Z"/><path class="cls-2" d="M80.43,46.52a1.5,1.5,0,0,0,1.5-1.5,1.63,1.63,0,0,0,0-.31,4.25,4.25,0,0,1,4.25-4.2l.48,0a1.49,1.49,0,0,0,1.16-.37,1.5,1.5,0,0,0,.5-1.12V17a1.48,1.48,0,0,0-.5-1.11,1.46,1.46,0,0,0-1.16-.38l-.48,0a4.27,4.27,0,0,1-4.25-4.32v-.12A1.49,1.49,0,0,0,81.49,10a1.51,1.51,0,0,0-1.08-.46h-25v3H79a7.26,7.26,0,0,0,6.29,6v19.1a7.28,7.28,0,0,0-6.29,6H55.36v3H80.43Z"/><path class="cls-2" d="M15.05,10a1.52,1.52,0,0,0-.41,1.11v.19a4.26,4.26,0,0,1-4.25,4.25,3.91,3.91,0,0,1-.49,0,1.46,1.46,0,0,0-1.16.38A1.48,1.48,0,0,0,8.25,17V39.05a1.5,1.5,0,0,0,.5,1.12,1.49,1.49,0,0,0,1.16.37,3.91,3.91,0,0,1,.49,0,4.26,4.26,0,0,1,4.24,4.32V45a1.5,1.5,0,0,0,.41,1.1,1.47,1.47,0,0,0,1.08.46H41.18v-3H17.54a7.27,7.27,0,0,0-6.29-6V18.46a7.26,7.26,0,0,0,6.29-6H41.18v-3h-25A1.51,1.51,0,0,0,15.05,10Z"/><path class="cls-2" d="M1.5,61.4a1.5,1.5,0,0,0,0,3H41.18v-3Z"/><path class="cls-2" d="M95,64.4a1.5,1.5,0,0,0,0-3H55.36v3Z"/><path class="cls-2" d="M95,92.54a1.5,1.5,0,0,0,0-3H55.36v3Z"/><path class="cls-2" d="M1.5,89.54a1.5,1.5,0,0,0,0,3H41.18v-3Z"/><path class="cls-2" d="M1.5,70.78a1.5,1.5,0,0,0,0,3H41.18v-3Z"/><path class="cls-2" d="M95,73.78a1.5,1.5,0,0,0,0-3H55.36v3Z"/><path class="cls-2" d="M1.5,80.16a1.5,1.5,0,0,0,0,3H41.18v-3Z"/><path class="cls-2" d="M95,83.16a1.5,1.5,0,0,0,0-3H55.36v3Z"/><polygon class="cls-3" points="55.36 52.02 55.36 46.52 55.36 43.52 55.36 35.62 55.36 30.2 55.36 25.83 55.36 20.4 55.36 12.5 55.36 9.5 55.36 4 55.36 1 55.36 0 41.19 0 41.19 1 41.19 4 41.19 9.5 41.19 12.5 41.19 20.4 41.19 25.83 41.19 30.2 41.19 35.62 41.19 43.52 41.19 46.52 41.19 52.02 41.19 55.02 41.19 61.4 41.19 64.4 41.19 70.78 41.19 73.78 41.19 80.16 41.19 83.16 41.19 89.54 41.19 92.54 41.19 93.54 55.36 93.54 55.36 92.54 55.36 89.54 55.36 83.16 55.36 80.16 55.36 73.78 55.36 70.78 55.36 64.4 55.36 61.4 55.36 55.02 55.36 52.02"/></g></g></svg>