<svg xmlns="http://www.w3.org/2000/svg" viewBox="0 0 93.42 95.04"><defs><style>.cls-1{fill:none;}.cls-2{fill:#595757;}.cls-3{fill:#ffca0a;}</style></defs><g id="Layer_2" data-name="Layer 2"><g id="icons"><path class="cls-1" d="M10.18,18.65a1.5,1.5,0,0,1,0-3H38.31l13.22-5.11H9.63A6.64,6.64,0,0,0,3,17.17V85.41A6.64,6.64,0,0,0,9.63,92H87.5V67.5H61.62a9.67,9.67,0,0,1,0-19.33H87.5V18.65Z"/><rect class="cls-1" x="78.77" y="10.54" width="8.72" height="5.11"/><path class="cls-2" d="M87.5,10.54v5.11H10.18a1.5,1.5,0,0,0,0,3H87.5V48.17h3V9A1.5,1.5,0,0,0,89,7.54H78.77v3Z"/><path class="cls-2" d="M87.5,92H9.63A6.64,6.64,0,0,1,3,85.41V17.17a6.64,6.64,0,0,1,6.63-6.63h41.9l7.75-3H9.63A9.64,9.64,0,0,0,0,17.17V85.41A9.64,9.64,0,0,0,9.63,95H89a1.5,1.5,0,0,0,1.5-1.5v-26h-3Z"/><path class="cls-3" d="M61.93,55a2.87,2.87,0,1,0,2.87,2.87A2.87,2.87,0,0,0,61.93,55Z"/><path class="cls-3" d="M93.42,48.17H61.62a9.67,9.67,0,0,0,0,19.33h31.8ZM61.93,63.7a5.87,5.87,0,1,1,5.87-5.86A5.87,5.87,0,0,1,61.93,63.7Z"/><path class="cls-2" d="M61.93,52a5.87,5.87,0,1,0,5.87,5.87A5.87,5.87,0,0,0,61.93,52Zm0,8.73a2.87,2.87,0,1,1,2.87-2.86A2.86,2.86,0,0,1,61.93,60.7Z"/><polygon class="cls-3" points="38.31 15.65 78.77 15.65 78.77 10.54 78.77 7.54 78.77 0 59.28 7.54 51.52 10.54 38.31 15.65"/></g></g></svg>