<svg xmlns="http://www.w3.org/2000/svg" viewBox="0 0 94.11 95.04"><defs><style>.cls-1{fill:none;}.cls-2{fill:#595757;}.cls-3{fill:#ffca0a;}</style></defs><g id="Layer_2" data-name="Layer 2"><g id="icons"><path class="cls-1" d="M66.51,44a25.39,25.39,0,0,1,14.26,4.36V30.55a1.52,1.52,0,0,1,.26-.84L47.05,3.4l-34,26.31a1.44,1.44,0,0,1,.26.84V71.47a1.45,1.45,0,0,1,.59-.12H41.07c0-.6-.07-1.2-.07-1.81A25.51,25.51,0,0,1,66.51,44Z"/><path class="cls-1" d="M13.92,74.35a1.45,1.45,0,0,1-.59-.12v6.35H43.51a25.31,25.31,0,0,1-2-6.23Z"/><path class="cls-1" d="M76.74,3H70.61V17.84l6.13,4.75Z"/><path class="cls-2" d="M93.52,35.59,79.64,24.84a1.45,1.45,0,0,0,.1-.51V1.5A1.5,1.5,0,0,0,78.24,0H69.11a1.5,1.5,0,0,0-1.5,1.5v14L48,.31a1.53,1.53,0,0,0-1.84,0L.58,35.59A1.52,1.52,0,0,0,.31,37.7,1.52,1.52,0,0,0,2.42,38l7.91-6.13V82.08a1.5,1.5,0,0,0,1.5,1.5H45.22a26.08,26.08,0,0,1-1.71-3H13.33V74.23a1.45,1.45,0,0,0,.59.12H41.46a29.63,29.63,0,0,1-.39-3H13.92a1.45,1.45,0,0,0-.59.12V30.55a1.44,1.44,0,0,0-.26-.84l34-26.31L81,29.71a1.52,1.52,0,0,0-.26.84V48.39a25.48,25.48,0,0,1,3,2.38V31.84L91.69,38a1.47,1.47,0,0,0,.91.31,1.5,1.5,0,0,0,.92-2.69ZM70.61,17.8V3h6.13V22.59l-6.13-4.75Z"/><path class="cls-3" d="M66.51,44A25.51,25.51,0,0,0,41,69.54c0,.61,0,1.21.07,1.81a29.63,29.63,0,0,0,.39,3,25.31,25.31,0,0,0,2,6.23,26.08,26.08,0,0,0,1.71,3A25.5,25.5,0,1,0,66.51,44ZM82.76,65.7,65.23,83.24a4.93,4.93,0,0,1-6.94,0l-9-9a4.91,4.91,0,0,1,6.94-7l5.54,5.54L75.82,58.76a4.91,4.91,0,0,1,6.94,6.94Z"/><path class="cls-3" d="M80.64,60.88a2,2,0,0,0-2.7,0L62.82,76a1.5,1.5,0,0,1-2.12,0l-6.6-6.59a1.91,1.91,0,0,0-2.7,0,1.92,1.92,0,0,0,0,2.7l9,9a1.94,1.94,0,0,0,2.7,0L80.64,63.58A1.9,1.9,0,0,0,80.64,60.88Z"/><path class="cls-2" d="M79.29,57.32a4.91,4.91,0,0,0-3.47,1.44L61.76,72.82l-5.54-5.54a4.91,4.91,0,1,0-6.94,7l9,9a4.93,4.93,0,0,0,6.94,0L82.76,65.7a4.91,4.91,0,0,0-3.47-8.38Zm1.35,6.26L63.11,81.11a1.94,1.94,0,0,1-2.7,0l-9-9a1.92,1.92,0,0,1,0-2.7,1.91,1.91,0,0,1,2.7,0L60.7,76a1.5,1.5,0,0,0,2.12,0L77.94,60.88a2,2,0,0,1,2.7,0A1.9,1.9,0,0,1,80.64,63.58Z"/></g></g></svg>