<svg xmlns="http://www.w3.org/2000/svg" viewBox="0 0 85.12 96.54"><defs><style>.cls-1{fill:none;}.cls-2{fill:#595757;}.cls-3{fill:#ffca0a;}</style></defs><g id="Layer_2" data-name="Layer 2"><g id="icons"><path class="cls-1" d="M13.48,48.27A29.08,29.08,0,1,0,42.56,19.19,29.11,29.11,0,0,0,13.48,48.27ZM44.06,25.91v3.75a10.12,10.12,0,0,1,8.61,10,1.5,1.5,0,0,1-3,0,7.11,7.11,0,1,0-7.11,7.11,2,2,0,0,1,.35,0,10.1,10.1,0,0,1,1.15,20.09v3.74a1.5,1.5,0,0,1-3,0V66.89a10.12,10.12,0,0,1-8.61-10,1.5,1.5,0,1,1,3,0,7.11,7.11,0,1,0,7.11-7.11,1.34,1.34,0,0,1-.35,0,10.1,10.1,0,0,1-1.15-20.08V25.91a1.5,1.5,0,1,1,3,0Z"/><path class="cls-2" d="M10.48,48.27A32.08,32.08,0,1,0,42.56,16.19,32.12,32.12,0,0,0,10.48,48.27Zm61.16,0A29.08,29.08,0,1,1,42.56,19.19,29.11,29.11,0,0,1,71.64,48.27Z"/><path class="cls-2" d="M41.06,25.91v3.75a10.1,10.1,0,0,0,1.15,20.08,1.34,1.34,0,0,0,.35,0,7.11,7.11,0,1,1-7.11,7.11,1.5,1.5,0,1,0-3,0,10.12,10.12,0,0,0,8.61,10v3.74a1.5,1.5,0,0,0,3,0V66.89A10.1,10.1,0,0,0,42.91,46.8a2,2,0,0,0-.35,0,7.12,7.12,0,1,1,7.11-7.11,1.5,1.5,0,0,0,3,0,10.12,10.12,0,0,0-8.61-10V25.91a1.5,1.5,0,1,0-3,0Z"/><path class="cls-3" d="M85.12,48.27A42.72,42.72,0,0,0,63.84,11.42,1.5,1.5,0,0,0,62.33,14,39.55,39.55,0,0,1,43.92,87.8l2.86-2.86a1.51,1.51,0,0,0,0-2.12,1.49,1.49,0,0,0-2.12,0L39.07,88.4a1.51,1.51,0,0,0,0,2.12l5.59,5.58a1.45,1.45,0,0,0,1.06.44,1.48,1.48,0,0,0,1.06-.44,1.51,1.51,0,0,0,0-2.12L43.6,90.8A42.6,42.6,0,0,0,85.12,48.27Z"/><path class="cls-3" d="M22.78,82.53A39.55,39.55,0,0,1,41.2,8.75l-2.86,2.86a1.49,1.49,0,0,0,0,2.12,1.5,1.5,0,0,0,2.12,0l5.59-5.59a1.5,1.5,0,0,0,0-2.12L40.46.44a1.5,1.5,0,0,0-2.12,2.12l3.18,3.18A42.54,42.54,0,0,0,21.28,85.12a1.46,1.46,0,0,0,.75.2,1.49,1.49,0,0,0,.75-2.79Z"/></g></g></svg>